<?xml version="1.0" encoding="UTF-8"?>
<svg id="Calque_2" data-name="Calque 2" xmlns="http://www.w3.org/2000/svg" xmlns:xlink="http://www.w3.org/1999/xlink" viewBox="0 0 611.23 227.49">
  <defs>
    <style>
      .cls-1 {
        fill: #eb5a2c;
      }

      .cls-2 {
        fill: none;
      }

      .cls-3 {
        clip-path: url(#clippath);
      }
    </style>
    <clipPath id="clippath">
      <rect class="cls-2" width="611.23" height="227.49"/>
    </clipPath>
  </defs>
  <g id="Calque_1-2" data-name="Calque 1">
    <g class="cls-3">
      <g>
        <path class="cls-1" d="M363.79,107v37.59h-18.56v-36.64c.01-.16.01-.33.01-.48s0-.31-.01-.47c-.07-3.21-.96-6.22-2.47-8.81-1.63-2.82-3.99-5.18-6.81-6.81-2.6-1.5-5.6-2.4-8.8-2.47-.16-.01-.33-.01-.48-.01s-.31,0-.47.01c-3.21.07-6.22.96-8.81,2.47-2.82,1.63-5.18,3.99-6.81,6.81-1.5,2.6-2.4,5.6-2.47,8.81-.01.16-.01.31-.01.47s0,.33.01.48v36.64h-18.56v-37.59c-.01-.16,0-.31.01-.47.06-2.88.45-5.68,1.15-8.34.84-3.31,2.13-6.41,3.79-9.28,1.25-2.16,2.7-4.16,4.33-6,1.02-1.16,2.11-2.26,3.28-3.28,1.84-1.63,3.86-3.08,6-4.31,0-.01.01-.01.01-.01,2.87-1.66,5.97-2.95,9.27-3.79,2.67-.7,5.46-1.09,8.34-1.15.16-.01.31-.01.47-.01h.95c.16,0,.33,0,.48.01,2.87.06,5.65.45,8.32,1.15,3.29.84,6.4,2.13,9.27,3.79,0,0,.01,0,.01.01,2.14,1.23,4.16,2.68,6,4.31,1.16,1.02,2.26,2.11,3.28,3.28,1.63,1.84,3.08,3.85,4.33,6,1.66,2.87,2.95,5.97,3.79,9.28.7,2.67,1.09,5.46,1.15,8.34.01.16.03.31.01.47Z"/>
        <path class="cls-1" d="M280.36,104.79c-.14-2.26-.51-4.46-1.05-6.58-.85-3.29-2.14-6.41-3.82-9.28-1.22-2.14-2.67-4.14-4.3-5.99-1.02-1.18-2.13-2.28-3.29-3.29-1.84-1.65-3.85-3.09-5.99-4.31-2.87-1.67-5.99-2.97-9.28-3.82-2.77-.71-5.66-1.11-8.64-1.15h-1.28c-2.98.04-5.87.44-8.64,1.15-3.29.85-6.41,2.14-9.28,3.82-2.14,1.22-4.14,2.67-5.99,4.31-1.18,1.01-2.27,2.11-3.29,3.29-1.63,1.84-3.08,3.85-4.31,5.99-1.67,2.87-2.97,5.99-3.82,9.28-.71,2.77-1.11,5.66-1.15,8.64v1.28c.04,2.98.44,5.87,1.15,8.64.85,3.29,2.14,6.41,3.82,9.28,1.23,2.14,2.68,4.14,4.31,5.99,1.02,1.18,2.11,2.28,3.29,3.29,1.84,1.65,3.85,3.09,5.99,4.31,2.87,1.67,5.99,2.97,9.28,3.82,2.77.71,5.66,1.11,8.64,1.15h1.28c2.98-.04,5.87-.44,8.64-1.15,3.29-.85,6.41-2.14,9.28-3.82v4.97h18.56v-37.12c0-.91-.03-1.8-.11-2.7ZM259.42,116.77c-1.62,2.82-3.96,5.17-6.78,6.8-2.72,1.58-5.9,2.48-9.28,2.48s-6.56-.89-9.28-2.48c-2.81-1.63-5.17-3.97-6.8-6.8-1.58-2.72-2.48-5.9-2.48-9.28s.91-6.56,2.48-9.28c1.63-2.82,3.99-5.17,6.8-6.8,2.72-1.59,5.9-2.48,9.28-2.48s6.56.91,9.28,2.48c2.82,1.63,5.17,3.97,6.78,6.8,1.59,2.72,2.5,5.9,2.5,9.28s-.91,6.56-2.5,9.28Z"/>
        <path class="cls-1" d="M428.36,150.56v3.39c0,3.38-.91,6.56-2.48,9.28-1.63,2.82-3.97,5.17-6.8,6.8-2.72,1.58-5.89,2.48-9.28,2.48s-6.54-.89-9.27-2.48c-2.82-1.63-5.17-3.97-6.8-6.8-1.58-2.72-2.48-5.9-2.48-9.28h-18.46c0,3.21.41,6.31,1.16,9.28.85,3.29,2.14,6.41,3.82,9.28,1.21,2.1,2.61,4.06,4.2,5.87,1.05,1.21,2.19,2.34,3.39,3.41,1.8,1.6,3.77,3.02,5.89,4.24,2.87,1.69,5.99,2.98,9.28,3.85,2.97.77,6.07,1.18,9.27,1.19h.11c3.16,0,6.23-.4,9.17-1.14,3.29-.84,6.41-2.11,9.28-3.79,2.19-1.23,4.23-2.7,6.1-4.36,1.12-.99,2.19-2.04,3.18-3.16,1.67-1.87,3.15-3.92,4.41-6.12,1.67-2.87,2.97-5.99,3.82-9.28.54-2.11.89-4.29,1.05-6.51v-51.99c-.16-2.23-.51-4.4-1.05-6.51-.85-3.29-2.14-6.41-3.82-9.28-1.26-2.2-2.74-4.24-4.41-6.12-.99-1.12-2.06-2.17-3.18-3.16-1.87-1.66-3.92-3.12-6.1-4.36-2.87-1.67-5.99-2.95-9.28-3.79-2.94-.74-6-1.14-9.17-1.14h-.11c-3.19.01-6.3.43-9.27,1.19-3.29.87-6.41,2.16-9.28,3.85-2.11,1.22-4.09,2.64-5.89,4.24-1.21,1.06-2.34,2.2-3.39,3.41-1.59,1.82-2.99,3.77-4.2,5.87-1.67,2.87-2.97,5.99-3.82,9.28-.75,2.97-1.16,6.07-1.16,9.28s.41,6.31,1.16,9.28c.85,3.29,2.14,6.41,3.82,9.28,1.21,2.1,2.61,4.06,4.2,5.87,1.05,1.21,2.19,2.34,3.39,3.41,1.8,1.6,3.77,3.02,5.89,4.24,2.87,1.69,5.99,2.98,9.28,3.85,2.97.77,6.07,1.18,9.27,1.19h.11c3.16,0,6.23-.4,9.17-1.14,3.29-.84,6.41-2.11,9.28-3.79v10.87ZM425.88,116.77c-1.63,2.82-3.97,5.17-6.8,6.8-2.7,1.56-5.82,2.47-9.17,2.48h-.11c-3.38,0-6.54-.89-9.27-2.48-2.82-1.63-5.17-3.97-6.8-6.8-1.58-2.72-2.48-5.9-2.48-9.28s.91-6.56,2.48-9.28c1.63-2.82,3.97-5.17,6.8-6.8,2.72-1.59,5.89-2.48,9.27-2.48s6.56.91,9.28,2.48c2.82,1.63,5.17,3.97,6.8,6.8,1.58,2.72,2.48,5.9,2.48,9.28s-.91,6.56-2.48,9.28Z"/>
        <g>
          <path class="cls-1" d="M123.81,134.11l-8.45-37.34-14.93,66.37h-18.56l17.84-80.15.13-.56c3.7-16.4,27.08-16.34,30.7.08h0s12.02,51.34,12.02,51.34l10.31-45.51.88-3.91c4.23-18.71,30.89-18.71,35.13,0h0s13.63,60.22,13.63,60.22l-18.56-.06-12.64-54.67-10.36,45.18h0c-4.42,19.68-32.46,19.7-36.91.03l-.23-1.02Z"/>
          <path class="cls-1" d="M175.03,61.71c-1.51-.28-3.07-.41-4.65-.41-1.87,0-3.71.19-5.45.56-3.44-9.2-12.3-15.74-22.69-15.74s-19.28,6.57-22.71,15.8c-1.84-.42-3.76-.62-5.74-.62-1.47,0-2.92.12-4.33.36,3.82-14.53,17.05-25.23,32.77-25.23s28.99,10.73,32.8,25.29Z"/>
        </g>
        <g>
          <path class="cls-1" d="M482.06,128.2c-1.69,0-3.13,1.11-3.59,2.63h7.19c-.5-1.51-1.93-2.63-3.6-2.63Z"/>
          <path class="cls-1" d="M492.43,70.75h0c-20.4,0-36.93,16.6-36.93,36.93v36.93h36.93c20.52-.02,36.93-16.53,36.93-36.93h0c0-19.79-16.53-36.93-36.93-36.93ZM474.03,137.96h-2.25v-6.01c0-2.08-1.7-3.77-3.77-3.77s-3.77,1.69-3.77,3.77v6.01h-2.25v-6.01c0-3.33,2.69-6.01,6.02-6.01s6.01,2.69,6.01,6.01v6.01ZM487.96,133.08h-9.49c.47,1.51,1.9,2.63,3.59,2.63,1.05,0,1.99-.44,2.69-1.11h2.72c-.96,1.99-3.04,3.36-5.41,3.36-3.33,0-6.01-2.69-6.01-6.01s2.69-6.01,6.01-6.01,6.01,2.71,6.01,6.01c0,.41-.05.79-.11,1.14ZM498.34,128.17h-3.77v9.78h-2.25v-9.78h-2.25v-2.25h2.25v-6.02h2.25v6.02h3.77v2.25Z"/>
        </g>
      </g>
    </g>
  </g>
</svg>