<?xml version="1.0" encoding="UTF-8"?>
<svg id="Calque_2" data-name="Calque 2" xmlns="http://www.w3.org/2000/svg" xmlns:xlink="http://www.w3.org/1999/xlink" viewBox="0 0 202.32 202.32">
  <defs>
    <style>
      .cls-1 {
        fill: #eb5a2c;
      }

      .cls-2 {
        fill: none;
      }

      .cls-3 {
        clip-path: url(#clippath);
      }
    </style>
    <clipPath id="clippath">
      <rect class="cls-2" width="202.32" height="202.32"/>
    </clipPath>
  </defs>
  <g id="Calque_1-2" data-name="Calque 1">
    <g class="cls-3">
      <g>
        <path class="cls-1" d="M82.78,135.49l-8.45-37.34-14.93,66.37h-18.56l17.84-80.15.13-.56c3.7-16.4,27.08-16.34,30.7.08h0s12.02,51.34,12.02,51.34l10.31-45.51.88-3.91c4.23-18.71,30.89-18.71,35.13,0h0s13.63,60.22,13.63,60.22l-18.56-.06-12.64-54.67-10.36,45.18h0c-4.42,19.68-32.46,19.7-36.91.03l-.23-1.02Z"/>
        <path class="cls-1" d="M134,63.08c-1.51-.28-3.07-.41-4.65-.41-1.87,0-3.71.19-5.45.56-3.44-9.2-12.3-15.74-22.69-15.74s-19.28,6.57-22.71,15.8c-1.84-.42-3.76-.62-5.74-.62-1.47,0-2.92.12-4.33.36,3.82-14.53,17.05-25.23,32.77-25.23s28.99,10.73,32.8,25.29Z"/>
      </g>
    </g>
  </g>
</svg>